<svg xmlns="http://www.w3.org/2000/svg" viewBox="0 0 100 100">
  <defs>
    <linearGradient id="g" x1="0%" y1="0%" x2="100%" y2="100%">
      <stop offset="0%" style="stop-color:#25D366"/>
      <stop offset="100%" style="stop-color:#128C7E"/>
    </linearGradient>
  </defs>
  <rect width="100" height="100" rx="22" fill="url(#g)"/>
  <path d="M50 20C33.4 20 20 33.4 20 50c0 5.3 1.4 10.3 3.8 14.6L20 80l15.8-3.7C39.9 78.6 44.8 80 50 80c16.6 0 30-13.4 30-30S66.6 20 50 20zm15.3 42.3c-.6 1.8-3.6 3.4-5 3.6-1.3.2-3 .3-4.8-.3-1.1-.4-2.5-.8-4.3-1.6-7.6-3.3-12.5-10.9-12.9-11.4-.4-.5-3-4-3-7.6s1.9-5.4 2.6-6.1c.7-.7 1.5-.9 2-.9h1.4c.5 0 1.1-.2 1.7 1.3.6 1.5 2.1 5.1 2.3 5.5.2.4.3.8.1 1.3-.2.5-.3.8-.6 1.2-.3.4-.7.9-1 1.2-.3.3-.7.7-.3 1.4.4.7 1.7 2.8 3.7 4.5 2.5 2.2 4.7 2.9 5.3 3.2.7.3 1.1.3 1.5-.2.4-.5 1.7-2 2.2-2.7.4-.7.9-.6 1.5-.4.6.3 3.8 1.8 4.5 2.1.7.3 1.1.5 1.3.8.2.3.2 1.5-.4 3.1z" fill="white"/>
</svg>